<?xml version="1.0" encoding="UTF-8" standalone="no"?>
<!-- Created with Inkscape (http://www.inkscape.org/) -->

<svg
   width="164.28723mm"
   height="164.28726mm"
   viewBox="0 0 164.28723 164.28726"
   version="1.1"
   id="svg1"
   xml:space="preserve"
   xmlns="http://www.w3.org/2000/svg"
   xmlns:svg="http://www.w3.org/2000/svg"><defs
     id="defs1"><linearGradient
       id="swatch9"><stop
         style="stop-color:#ff0a0a;stop-opacity:0.49529782;"
         offset="0"
         id="stop10" /></linearGradient></defs><g
     id="layer1"
     transform="translate(-229.51383,421.76308)"><g
       id="g39"
       transform="translate(-49.278295,-39.993627)"
       style="fill:#ffffff"><path
         style="fill:#ffffff;stroke-width:0.264583"
         d="m 279.39031,-322.67351 3.92742,-12.81576 7.4414,-13.64257 8.26823,-10.54201 7.85482,-7.6481 -7.23471,8.88834 -1.44693,6.61458 3.10057,10.33528 8.47495,7.44141 11.16211,6.61458 13.22917,4.13412 21.29067,2.68719 22.53094,-1.65365 20.87727,-6.20117 12.19565,-6.61458 7.6481,-8.06154 2.89388,-8.06151 -1.65365,-8.26823 -4.34081,-6.40789 11.98894,12.60906 8.47492,13.64258 3.51401,10.12857 2.89388,11.16211 -5.58107,-10.95539 -8.47492,-5.37435 -9.09505,-0.20672 -12.81576,5.16765 -16.32976,10.95539 -13.84927,17.98342 -10.1286,20.05044 -3.30729,11.57552 -2.68716,12.81575 1.24023,16.94987 4.54753,9.30177 6.40786,4.75422 10.95542,1.65365 5.16763,-1.24024 -11.57552,3.30731 -16.74315,1.44694 -11.16211,-0.82682 -11.36883,-1.65365 -3.30729,-1.24023 h 8.47495 l 6.82127,-2.27378 5.58107,-7.6481 2.68716,-9.71518 -1.03351,-17.36328 -3.92742,-14.67609 -9.92188,-21.29071 -11.16211,-14.67609 -12.19562,-11.98893 -13.22917,-9.09506 -10.33529,-1.86036 -10.12859,2.27378 z"
         id="path31" /><path
         style="fill:#ffffff;stroke-width:0.264583"
         d="m 341.81544,-275.75132 -5.58105,-15.70964 -9.92187,-12.40234 -13.43589,-8.68164 -8.26822,-4.34081 -7.44141,-0.20672 -4.96094,3.51401 -2.68716,7.85482 0.20669,9.50846 1.86037,11.98893 3.30729,9.09506 4.54753,10.33528 7.85481,10.33529 9.30175,7.6481 9.09505,6.20117 7.02799,2.89388 7.85482,1.65365 3.92742,-0.2067 -0.62013,-27.69856 -27.07843,-17.57 0.82682,14.05599 11.16211,6.8213 0.41341,5.99445 -4.54753,-0.20669 -5.78776,-2.27378 -5.58106,-4.96094 -4.13412,-6.82127 -2.89388,-9.09505 -1.24023,-9.71519 1.03354,-7.85481 1.86034,-2.68716 h 3.92742 l 5.58104,2.89388 3.92742,4.3408 2.89388,4.96094 1.24024,3.7207 z"
         id="path32" /><path
         style="fill:#ffffff;stroke-width:0.264583"
         d="m 376.74872,-228.82911 17.56997,-11.57552 0.20672,-25.2181 18.60351,-11.57552 -0.82682,24.18456 15.08951,-10.33529 4.54752,-63.45865 -16.53646,9.50847 -1.44692,24.18456 -18.39683,10.95541 -0.20669,-23.35776 -18.60351,10.7487 z"
         id="path33" /><path
         style="fill:#ffffff;stroke-width:0.264583"
         d="m 343.05567,-334.86916 -3.7207,2.68719 -0.41341,2.68716 3.51401,3.51401 6.82127,0.41341 5.16766,-1.03354 4.54752,-3.30729 -1.03354,-3.72071 -5.58104,-1.86034 -3.7207,-0.82682 z"
         id="path34" /><path
         style="fill:#ffffff;stroke-width:0.264583"
         d="m 375.71518,-340.4502 7.02799,-1.03355 3.92742,-2.06705 0.20669,-3.10057 -2.68716,-2.48047 -6.20117,-1.44696 -7.23471,1.65365 -2.06706,3.1006 0.82682,2.89388 z"
         id="path35" /><path
         style="fill:#ffffff;stroke-width:0.264583"
         d="m 408.78809,-354.9196 4.34083,-2.48047 v -2.48047 l -2.48046,-2.06706 -6.40789,-2.06706 -5.58105,1.44693 -2.48046,1.86037 -0.41342,2.27375 3.9274,3.30729 z"
         id="path36" /><path
         style="fill:#ffffff;stroke-width:0.264583"
         d="m 374.68166,-371.86947 2.89388,-2.06706 0.6201,-3.1006 -3.51398,-2.06706 h -6.8213 l -5.16763,1.44696 -0.82683,2.89388 3.3073,2.89388 z"
         id="path37" /><path
         style="fill:#ffffff;stroke-width:0.264583"
         d="m 343.88249,-367.73536 -8.26823,2.27375 -1.03351,3.7207 5.16763,2.68719 5.16766,0.20669 4.96093,-1.65364 1.86034,-2.27375 -0.41341,-2.48047 -2.48047,-1.65365 z"
         id="path38" /><path
         style="fill:#ffffff;stroke-width:0.264583"
         d="m 317.01075,-354.50619 -7.44141,0.82682 -3.7207,1.86034 -0.82682,3.51401 3.1006,2.06706 7.23468,1.03351 6.20117,-1.86034 1.86037,-2.89388 -0.62013,-2.68718 z"
         id="path39" /></g><rect
       style="fill:none;stroke-width:0.342617"
       id="rect39"
       width="164.28723"
       height="164.28723"
       x="229.51382"
       y="-421.76306"
       ry="16.203484" /></g></svg>
